<svg width="24" height="24" viewBox="0 0 24 24" fill="none" xmlns="http://www.w3.org/2000/svg">
  <path d="M18.292 6.25543C20.3283 9.26805 21.334 12.6662 20.9581 16.5783C20.9565 16.5948 20.9479 16.61 20.9344 16.62C19.3923 17.7594 17.8982 18.4508 16.4251 18.9094C16.4136 18.9129 16.4013 18.9127 16.39 18.9088C16.3786 18.905 16.3687 18.8976 16.3617 18.8878C16.0214 18.4114 15.7122 17.909 15.4412 17.3815C15.4257 17.3505 15.4399 17.313 15.4719 17.3008C15.963 17.1146 16.43 16.8915 16.8792 16.6272C16.9146 16.6064 16.9169 16.5554 16.8842 16.5309C16.7888 16.4597 16.6944 16.3848 16.604 16.31C16.5871 16.2961 16.5644 16.2934 16.5452 16.3027C13.6289 17.6578 10.4343 17.6578 7.48348 16.3027C7.46432 16.2941 7.44156 16.297 7.4251 16.3107C7.33495 16.3855 7.24028 16.4597 7.14585 16.5309C7.11317 16.5554 7.11587 16.6064 7.15148 16.6272C7.60068 16.8865 8.06768 17.1146 8.55813 17.3017C8.58991 17.314 8.60501 17.3505 8.58923 17.3815C8.32417 17.9097 8.01494 18.4121 7.6683 18.8885C7.6532 18.9078 7.6284 18.9166 7.60496 18.9094C6.13881 18.4508 4.64472 17.7594 3.10262 16.62C3.08977 16.61 3.08053 16.5941 3.07918 16.5776C2.76498 13.1937 3.40531 9.76743 5.74281 6.25475C5.74844 6.24545 5.75701 6.2382 5.76692 6.23389C6.91708 5.70276 8.14927 5.312 9.43714 5.08885C9.46058 5.08522 9.48402 5.0961 9.49619 5.11697C9.65532 5.40045 9.8372 5.76399 9.96026 6.06108C11.3178 5.85243 12.6965 5.85243 14.0824 6.06108C14.2054 5.77034 14.381 5.40045 14.5395 5.11697C14.5451 5.10662 14.5539 5.09833 14.5645 5.09328C14.5751 5.08822 14.587 5.08667 14.5985 5.08885C15.8871 5.31268 17.1193 5.70344 18.2685 6.23389C18.2787 6.2382 18.287 6.24545 18.292 6.25543ZM10.6504 12.6893C10.6646 11.689 9.93975 10.8612 9.02986 10.8612C8.12741 10.8612 7.40955 11.6817 7.40955 12.6893C7.40955 13.6967 8.14161 14.5172 9.02986 14.5172C9.93254 14.5172 10.6504 13.6967 10.6504 12.6893ZM16.6417 12.6893C16.6559 11.689 15.931 10.8612 15.0213 10.8612C14.1187 10.8612 13.4008 11.6817 13.4008 12.6893C13.4008 13.6967 14.1329 14.5172 15.0213 14.5172C15.931 14.5172 16.6417 13.6967 16.6417 12.6893Z" fill="#fff"/>
</svg>